<svg width="180" height="211" viewBox="0 0 180 211" fill="none" xmlns="http://www.w3.org/2000/svg">
<path d="M166.221 100.802C159.551 95.636 151.489 92.58 143.07 92.027L134.864 91.3401L142.367 87.9317C154.245 83.1657 164.328 74.7937 171.197 63.9951C176.766 54.6391 178.762 43.5839 176.817 32.871C175.854 27.4192 173.881 22.1954 170.999 17.4687C167.831 12.4931 163.333 8.50382 158.014 5.9526C150.798 2.5703 142.996 0.615047 135.037 0.194543C123.035 -0.42629 111.003 0.440212 99.2135 2.77372L17.278 17.1134L0 210.316L99.9954 192.824C113.79 190.666 127.261 186.79 140.092 181.284C149.415 177.308 157.926 171.651 165.202 164.595C170.857 158.995 175.001 152.053 177.247 144.418C179.251 137.151 179.599 129.527 178.266 122.108C177.099 113.736 172.793 106.12 166.221 100.802ZM112.949 140.603C107.818 145.214 101.387 148.126 94.5375 148.944L61.3163 154.761L64.3533 120.991L93.2066 115.94C108.016 113.357 116.357 116.73 117.984 126.007C118.44 128.667 118.218 131.399 117.338 133.95C116.458 136.502 114.948 138.79 112.949 140.603ZM117.787 70.7525C112.836 75.5401 106.405 78.5021 99.5492 79.1524L67.6786 84.7369L70.4431 52.6689L98.2182 47.8152C103.592 46.4989 109.207 46.5176 114.572 47.8702C116.57 48.5704 118.33 49.8174 119.653 51.4694C120.976 53.1215 121.809 55.1124 122.056 57.2145C122.446 59.6458 122.263 62.1346 121.52 64.4825C120.778 66.8303 119.497 68.972 117.779 70.7366L117.787 70.7525Z" fill="#BFBAB4"/>
</svg>
