<svg width="977" height="467" viewBox="0 0 977 467" fill="none" xmlns="http://www.w3.org/2000/svg">
<g clip-path="url(#clip0_0_6)">
<g opacity="0.994">
<path d="M291.959 101.093C293.415 99.6397 294.504 97.8596 295.136 95.9008C295.767 93.942 295.922 91.8608 295.588 89.8301C295.384 88.5271 294.917 87.2791 294.217 86.1617C293.516 85.0444 292.596 84.0809 291.512 83.3296C287.573 81.1383 282.928 80.5891 278.587 81.8013L263.931 84.3683L261.561 110.694L277.248 107.953C282.775 107.356 287.949 104.944 291.959 101.093Z" fill="white"/>
<path d="M266.981 204.513L367.368 186.943L383.955 9.92566e-05L235.739 25.9349L136 43.3868L35.6293 60.957L19.0424 247.9L167.243 221.949L266.981 204.513ZM230.901 59.5235L274.896 51.8263C283.629 50.0734 292.575 49.6315 301.439 50.5152C307.554 51.1341 313.435 53.1955 318.598 56.5299C322.083 58.95 324.97 62.1319 327.042 65.8344C329.151 69.6728 330.6 73.8379 331.331 78.1561C332.087 82.4039 332.232 86.738 331.761 91.0268C331.282 95.2046 330.079 99.2671 328.207 103.033C326.165 107.061 323.442 110.705 320.158 113.806C316.242 117.466 311.806 120.527 306.995 122.889L305.724 123.537L328.132 158.686L289.429 165.463L270.82 134.769L259.399 136.767L256.267 171.28L220.384 177.547L230.901 59.5235ZM118.663 133.426L113.078 196.322L78.0168 202.451L88.5732 84.4157L124.713 78.0969L146.28 117.368L175.643 69.1873L215.716 62.1892L205.16 180.225L169.45 186.473L175.09 123.008L142.595 173.898L118.663 133.426Z" fill="white"/>
<path d="M166.221 357.041C159.551 351.875 151.49 348.819 143.071 348.266L134.864 347.579L142.368 344.171C154.245 339.404 164.329 331.032 171.198 320.234C176.767 310.878 178.763 299.823 176.817 289.11C175.855 283.658 173.882 278.434 171 273.708C167.832 268.732 163.333 264.743 158.015 262.191C150.799 258.809 142.997 256.854 135.038 256.433C123.036 255.813 111.004 256.679 99.2143 259.013L17.2788 273.352L0.000776201 466.554L99.9962 449.063C113.791 446.905 127.262 443.028 140.093 437.523C149.416 433.547 157.927 427.889 165.203 420.834C170.858 415.234 175.002 408.292 177.248 400.657C179.251 393.39 179.6 385.766 178.267 378.347C177.1 369.974 172.794 362.358 166.221 357.041ZM112.95 396.842C107.818 401.452 101.388 404.365 94.5383 405.183L61.3171 411L64.3541 377.23L93.2074 372.179C108.017 369.596 116.358 372.969 117.985 382.245C118.441 384.905 118.219 387.638 117.339 390.189C116.458 392.741 114.949 395.029 112.95 396.842ZM117.788 326.991C112.837 331.779 106.406 334.741 99.55 335.391L67.6794 340.976L70.4438 308.908L98.219 304.054C103.593 302.738 109.208 302.756 114.573 304.109C116.57 304.809 118.331 306.056 119.654 307.708C120.977 309.36 121.81 311.351 122.057 313.453C122.447 315.885 122.264 318.373 121.521 320.721C120.778 323.069 119.497 325.211 117.78 326.975L117.788 326.991Z" fill="white"/>
<path d="M381.215 257.836C375.093 248.598 367.123 240.729 357.808 234.725C348.018 228.526 337.134 224.256 325.74 222.146C313.047 219.814 300.034 219.835 287.349 222.205C272.457 224.688 258.255 230.281 245.669 238.619C233.705 246.553 223.399 256.739 215.326 268.609C207.377 280.404 201.679 293.567 198.518 307.435C195.284 321.401 194.897 335.876 197.381 349.996C199.28 361.311 203.517 372.106 209.821 381.693C215.932 390.94 223.902 398.812 233.224 404.808C243.016 411.002 253.9 415.27 265.292 417.382C277.986 419.715 291.001 419.695 303.687 417.323C318.578 414.836 332.779 409.244 345.368 400.91C357.323 392.968 367.625 382.784 375.706 370.923C383.662 359.132 389.361 345.968 392.514 332.098C395.748 318.131 396.135 303.656 393.652 289.537C391.759 278.219 387.523 267.421 381.215 257.836ZM335.514 324.578C334.509 330.941 332.402 337.079 329.286 342.717C326.206 348.267 322.09 353.175 317.162 357.176C311.913 361.377 305.663 364.144 299.023 365.204C293.601 366.263 288.022 366.236 282.61 365.125C277.885 364.107 273.452 362.032 269.645 359.055C265.932 356.082 262.833 352.417 260.518 348.262C258.051 343.816 256.363 338.981 255.526 333.966C254.45 327.659 254.442 321.216 255.502 314.907C256.515 308.545 258.623 302.408 261.734 296.768C264.815 291.219 268.931 286.312 273.859 282.313C279.104 278.11 285.352 275.342 291.99 274.281C297.366 273.259 302.889 273.291 308.253 274.375C313.034 275.362 317.524 277.435 321.376 280.433C325.089 283.406 328.188 287.072 330.503 291.227C332.969 295.674 334.66 300.508 335.503 305.523C336.573 311.834 336.577 318.279 335.514 324.59V324.578Z" fill="white"/>
<path d="M595.578 220.346C589.46 211.103 581.489 203.232 572.171 197.231C562.382 191.034 551.499 186.766 540.107 184.656C527.413 182.325 514.399 182.345 501.712 184.716C486.819 187.196 472.614 192.789 460.027 201.129C448.066 209.064 437.762 219.25 429.689 231.119C421.738 242.911 416.04 256.073 412.885 269.941C409.645 283.907 409.26 298.383 411.752 312.502C413.649 323.815 417.883 334.609 424.184 344.195C430.295 353.44 438.266 361.312 447.587 367.306C457.379 373.501 468.263 377.769 479.655 379.88C492.348 382.211 505.361 382.193 518.047 379.825C532.938 377.338 547.139 371.746 559.727 363.412C571.685 355.47 581.991 345.285 590.073 333.421C598.027 321.632 603.723 308.468 606.873 294.6C610.113 280.634 610.501 266.158 608.015 252.039C606.132 240.721 601.895 229.924 595.578 220.346ZM549.877 287.088C548.869 293.449 546.764 299.586 543.657 305.227C540.579 310.779 536.461 315.686 531.529 319.682C526.281 323.885 520.033 326.653 513.394 327.714C507.972 328.771 502.393 328.745 496.981 327.635C492.256 326.619 487.822 324.543 484.015 321.565C480.303 318.591 477.202 314.926 474.884 310.772C472.418 306.326 470.728 301.491 469.889 296.476C468.82 290.166 468.82 283.722 469.889 277.413C470.899 271.051 473.006 264.914 476.116 259.274C479.199 253.72 483.314 248.808 488.241 244.8C493.489 240.597 499.74 237.83 506.38 236.771C511.755 235.749 517.276 235.782 522.639 236.865C527.419 237.849 531.908 239.921 535.758 242.92C539.474 245.89 542.576 249.556 544.889 253.713C547.352 258.161 549.042 262.996 549.886 268.01C550.953 274.324 550.953 280.774 549.886 287.088H549.877Z" fill="white"/>
<path d="M692.07 199.556C695.265 197.538 698.853 196.222 702.595 195.698C713.004 193.901 723.672 194.274 733.929 196.796C743.071 198.931 751.917 202.174 760.274 206.452L786.758 160.616C774.906 154.09 761.996 149.708 748.62 147.671C732.81 145.232 716.702 145.463 700.968 148.354C689.282 150.244 677.979 154.014 667.498 159.519C658.603 164.198 650.606 170.412 643.874 177.875C637.928 184.56 633.483 192.442 630.841 200.99C628.314 209.357 627.798 218.202 629.336 226.806C630.242 232.771 632.277 238.509 635.331 243.713C638.237 248.319 642.072 252.269 646.591 255.308C651.971 258.857 657.847 261.59 664.027 263.42C672.036 265.826 680.18 267.755 688.417 269.198C695.707 270.532 701.616 271.686 706.047 272.665C710.608 273.684 714.013 274.565 716.445 275.386C718.67 275.973 720.682 277.183 722.243 278.873C723.311 280.243 724.018 281.859 724.301 283.573C724.612 285.225 724.456 286.93 723.85 288.498C723.245 290.066 722.213 291.434 720.872 292.447C717.778 294.798 714.125 296.303 710.273 296.815C699.236 298.593 687.962 298.247 677.055 295.796C664.86 293.034 653.165 288.403 642.384 282.068L615.901 327.88C629.141 335.791 643.656 341.34 658.797 344.277C676.261 347.652 694.204 347.712 711.69 344.455C723.742 342.518 735.411 338.683 746.263 333.093C755.244 328.448 763.286 322.179 769.981 314.602C775.857 307.793 780.132 299.754 782.492 291.076C784.826 282.341 785.197 273.196 783.575 264.301C782.61 258.051 780.347 252.072 776.932 246.75C773.661 241.902 769.425 237.781 764.488 234.645C758.898 231.134 752.838 228.432 746.491 226.617C738.823 224.37 731.047 222.513 723.191 221.052C716.335 219.867 710.759 218.836 706.529 217.995C702.299 217.154 698.89 216.372 696.481 215.649C694.369 215.161 692.402 214.182 690.74 212.79C689.482 211.542 688.664 209.919 688.409 208.166C688.077 206.529 688.249 204.83 688.903 203.293C689.556 201.755 690.661 200.453 692.07 199.556Z" fill="white"/>
<path d="M806.932 131.491L802.368 182.97L857.918 173.251L845.217 314.99L903.938 304.722L916.663 163.002L972.198 153.267L976.75 101.792L806.932 131.491Z" fill="white"/>
</g>
</g>
<defs>
<clipPath id="clip0_0_6">
<rect width="976.749" height="466.555" fill="white"/>
</clipPath>
</defs>
</svg>
